<svg id="Layer_1" data-name="Layer 1" xmlns="http://www.w3.org/2000/svg" viewBox="0 0 417.49 417.49"><defs><style>.cls-1{fill:#fff;}.cls-2{fill:#231f20;}.cls-3{fill:#fa0000;}</style></defs><g id="Baseball"><circle class="cls-1" cx="208.74" cy="208.74" r="194.74"/><path class="cls-2" d="M208.74,56.6A180.74,180.74,0,1,1,28,237.34,180.74,180.74,0,0,1,208.74,56.6m0-28a208.79,208.79,0,0,0-81.26,401.07A208.79,208.79,0,1,0,208.74,28.6Z" transform="translate(0 -28.6)"/><path class="cls-3" d="M112.38,161.85c-7.76-.64-9.67-4.13-11.07-6.68A6.71,6.71,0,0,0,96,150.92,6.39,6.39,0,0,0,90.49,154c-1.63,2-4.11,5.14-12.65,3.86A4.6,4.6,0,0,0,76.47,167h0c10,1.49,15.47-1.52,18.57-4.34,2.44,3.39,7.09,7.62,16.53,8.38H112a4.59,4.59,0,0,0,.35-9.16Z" transform="translate(0 -28.6)"/><path class="cls-3" d="M118.78,142.43c-7.21-3-8-6.89-8.5-9.74a6.73,6.73,0,0,0-3.69-5.65,6.37,6.37,0,0,0-6.18,1.25c-2.2,1.44-5.51,3.64-13.25-.19a4.59,4.59,0,1,0-4.45,8l.39.19c9,4.48,15.18,3.3,19,1.56,1.29,4,4.41,9.41,13.18,13a4.3,4.3,0,0,0,1.77.35,4.59,4.59,0,0,0,1.78-8.86Z" transform="translate(0 -28.6)"/><path class="cls-3" d="M129.52,118.71c-7.09-3.21-7.75-7.09-8.21-10a6.68,6.68,0,0,0-3.54-5.78,6.42,6.42,0,0,0-6.22,1c-2.23,1.38-5.6,3.54-13.22-.61a4.59,4.59,0,0,0-4.34,8.1h0c8.86,4.77,15.08,3.77,19,2.16,1.17,4,4.09,9.53,12.76,13.45a4.84,4.84,0,0,0,1.87.41,4.61,4.61,0,0,0,1.9-8.86Z" transform="translate(0 -28.6)"/><path class="cls-3" d="M140.16,94.56c-7.08-3.22-7.74-7.08-8.2-10a6.64,6.64,0,0,0-3.54-5.76,6.41,6.41,0,0,0-6.22,1,9.6,9.6,0,0,1-5.32,1.77q-5.31,3.16-10.41,6.65c7.92,3.68,13.5,2.73,17.09,1.24,1.17,4,4.1,9.55,12.76,13.44a4.22,4.22,0,0,0,1.88.41,4.59,4.59,0,0,0,1.89-8.77Z" transform="translate(0 -28.6)"/><path class="cls-3" d="M110,187.93c-7.76-.62-9.68-4.11-11.08-6.66A6.7,6.7,0,0,0,93.57,177a6.47,6.47,0,0,0-5.51,3.07c-1.63,2.06-4.11,5.16-12.65,3.88a4.59,4.59,0,1,0-1.64,9l.28,0c10,1.51,15.46-1.51,18.56-4.32,2.45,3.38,7.09,7.62,16.53,8.38h.39a4.59,4.59,0,1,0,.36-9.18Z" transform="translate(0 -28.6)"/><path class="cls-3" d="M107.51,214c-7.78-.63-9.69-4.12-11.09-6.66a6.6,6.6,0,0,0-5.22-4.25,6.41,6.41,0,0,0-5.51,3.07c-1.65,2-4.13,5.13-12.67,3.86a4.6,4.6,0,0,0-1.37,9.09h0c10,1.49,15.47-1.51,18.59-4.34,2.44,3.4,7.09,7.61,16.53,8.39h.37a4.59,4.59,0,0,0,.37-9.16Z" transform="translate(0 -28.6)"/><path class="cls-3" d="M102.29,246.38c-7.09-3.37-7.59-7.3-8-10.17a6.71,6.71,0,0,0-3.39-5.85,6.39,6.39,0,0,0-6.18.92c-2.27,1.33-5.67,3.35-13.22-.88a4.59,4.59,0,1,0-5.06,7.65,4.48,4.48,0,0,0,.56.32c8.86,4.94,15,4.07,18.91,2.55,1.08,4,3.91,9.62,12.4,13.71a4.59,4.59,0,1,0,4-8.29Z" transform="translate(0 -28.6)"/><path class="cls-3" d="M89.87,269c-7.09-3.34-7.59-7.28-8-10.16A6.63,6.63,0,0,0,78.49,253a6.41,6.41,0,0,0-6.23.9c-2.27,1.35-5.69,3.35-13.22-.89a4.59,4.59,0,0,0-4.5,8c8.86,5,15,4.1,18.9,2.55,1.08,4,3.9,9.64,12.4,13.72a4.6,4.6,0,1,0,4-8.3Z" transform="translate(0 -28.6)"/><path class="cls-3" d="M76.7,292.49c-6.87-3.68-7.23-7.65-7.49-10.54a6.72,6.72,0,0,0-3.08-6,6.44,6.44,0,0,0-6.29.62c-2.32,1.23-5.83,3.07-13.15-1.54a4.59,4.59,0,0,0-4.89,7.78c8.56,5.32,14.78,4.82,18.76,3.54.89,4.1,3.42,9.82,11.78,14.32a4.61,4.61,0,0,0,4.36-8.1Z" transform="translate(0 -28.6)"/><path class="cls-3" d="M256.88,268.18c.85-4.09.83-10.36-5-17.85a4.59,4.59,0,1,0-7.26,5.63h0c4.78,6.17,3.54,9.92,2.59,12.67a6.63,6.63,0,0,0,.38,6.73,6.48,6.48,0,0,0,6,2c2.63-.18,6.58-.44,11.41,6.72a4.6,4.6,0,1,0,7.62-5.14C267,270.58,261.06,268.49,256.88,268.18Z" transform="translate(0 -28.6)"/><path class="cls-3" d="M278.05,254c1-4.06,1.21-10.33-4.36-18a4.59,4.59,0,0,0-7.89,4.68,4.09,4.09,0,0,0,.45.64c4.57,6.32,3.16,10,2.13,12.75a6.68,6.68,0,0,0,.16,6.75,6.4,6.4,0,0,0,5.92,2.2c2.62,0,6.57-.21,11.14,7.09a4.62,4.62,0,0,0,3.91,2.16,4.82,4.82,0,0,0,2.43-.69,4.59,4.59,0,0,0,1.45-6.33h0C288.06,256.78,282.22,254.56,278.05,254Z" transform="translate(0 -28.6)"/><path class="cls-3" d="M301.74,241c1.35-4,2.11-10.18-2.73-18.33a4.59,4.59,0,0,0-7.9,4.67h0c4,6.72,2.25,10.3,1,12.9a6.66,6.66,0,0,0-.42,6.73,6.36,6.36,0,0,0,5.69,2.72c2.62.15,6.57.39,10.48,8.09a4.59,4.59,0,0,0,4.1,2.52,4.59,4.59,0,0,0,4.1-6.63v0C311.5,244.57,305.83,241.91,301.74,241Z" transform="translate(0 -28.6)"/><path class="cls-3" d="M324.36,227.9c1.35-4,2.11-10.17-2.73-18.34a4.6,4.6,0,0,0-7.9,4.7c4,6.69,2.25,10.27,1,12.88a6.71,6.71,0,0,0-.45,6.73A6.47,6.47,0,0,0,320,236.6c2.6.14,6.57.37,10.47,8.07a4.63,4.63,0,0,0,4.09,2.56,4.42,4.42,0,0,0,2.08-.52,4.6,4.6,0,0,0,2-6.16C334.07,231.53,328.46,228.8,324.36,227.9Z" transform="translate(0 -28.6)"/><path class="cls-3" d="M348.92,214.84h-.21c.4-4.16-.23-10.4-6.79-17.26a4.59,4.59,0,0,0-6.84,6.13l.2.2c5.31,5.65,4.5,9.53,3.84,12.4A6.67,6.67,0,0,0,340.2,223a6.44,6.44,0,0,0,6.17,1.37c2.58-.43,6.48-1.1,12,5.54a4.6,4.6,0,1,0,7.08-5.88C359.11,216.31,353.1,214.84,348.92,214.84Z" transform="translate(0 -28.6)"/><path class="cls-3" d="M381.85,200.05c-7.86-6.33-14.17-6.51-18.21-5.64-.41-4.16-2.27-10.13-10-15.57a4.61,4.61,0,1,0-5.32,7.53c6.38,4.46,6.27,8.43,6.2,11.34a6.67,6.67,0,0,0,2.38,6.32,6.43,6.43,0,0,0,6.3.13c2.45-1,6.15-2.38,12.88,3a4.59,4.59,0,1,0,6.47-6.5,4,4,0,0,0-.71-.58Z" transform="translate(0 -28.6)"/><path class="cls-3" d="M234.29,282.75c.94-4.08,1.08-10.35-4.57-18a4.59,4.59,0,0,0-7.37,5.45c4.63,6.27,3.26,10,2.27,12.74a6.64,6.64,0,0,0,.23,6.75,6.41,6.41,0,0,0,5.93,2.13c2.64-.13,6.59-.29,11.25,7a4.59,4.59,0,1,0,7.73-5C244.32,285.37,238.46,283.23,234.29,282.75Z" transform="translate(0 -28.6)"/><path class="cls-3" d="M234.84,301.51c-9.11-4.36-15.22-3.1-19-1.31-1.33-3.95-4.51-9.36-13.32-12.88a4.6,4.6,0,0,0-3.4,8.54c7.23,2.89,8,6.78,8.63,9.62a6.67,6.67,0,0,0,3.75,5.61,5.44,5.44,0,0,0,1.86.36,7.78,7.78,0,0,0,4.31-1.68c2.16-1.47,5.44-3.71,13.23,0a4.6,4.6,0,0,0,4-8.3h0Z" transform="translate(0 -28.6)"/><path class="cls-3" d="M223.22,324.79c-9.11-4.36-15.24-3.1-19-1.31-1.34-4-4.52-9.36-13.34-12.88a4.6,4.6,0,0,0-3.4,8.54c7.25,2.89,8,6.78,8.63,9.62a6.7,6.7,0,0,0,3.75,5.61,5.5,5.5,0,0,0,1.88.36,7.72,7.72,0,0,0,4.29-1.68c2.18-1.48,5.46-3.71,13.25,0a4.6,4.6,0,0,0,4-8.3Z" transform="translate(0 -28.6)"/><path class="cls-3" d="M211.88,348.3c-9.11-4.38-15.24-3.1-19-1.31-1.34-4-4.51-9.37-13.34-12.88a4.58,4.58,0,1,0-3.56,8.45l.16.07c7.25,2.89,8,6.79,8.63,9.64a6.7,6.7,0,0,0,3.75,5.6,5.08,5.08,0,0,0,1.88.37,7.7,7.7,0,0,0,4.29-1.77c2.18-1.47,5.46-3.71,13.25,0a4.59,4.59,0,0,0,4.09-8.22l-.12-.06Z" transform="translate(0 -28.6)"/><path class="cls-3" d="M180.65,379.76a6.69,6.69,0,0,0,5.47,3.94h.11a6.44,6.44,0,0,0,5.31-3.39c1.51-2.14,3.81-5.31,12.4-4.6a4.59,4.59,0,0,0,.84-9.15h0c-10.07-.9-15.35,2.41-18.29,5.41-2.64-3.24-7.51-7.19-17-7.41a4.59,4.59,0,0,0-.21,9.18C177,373.93,179.1,377.3,180.65,379.76Z" transform="translate(0 -28.6)"/><path class="cls-3" d="M206.53,387.43c-9.92,1.9-14.17,6.56-16.1,10.25-3.42-2.4-9.2-4.86-18.38-2.45a4.59,4.59,0,1,0,1.83,9,4.77,4.77,0,0,0,.51-.13c7.53-2,10.49.69,12.65,2.64a7.65,7.65,0,0,0,5,2.46,5,5,0,0,0,1.4-.19,6.41,6.41,0,0,0,4.18-4.72c.87-2.48,2.18-6.22,10.63-7.84a4.6,4.6,0,1,0-1.77-9h.09Z" transform="translate(0 -28.6)"/><path class="cls-3" d="M365.82,167.68c-1.4-3.93-4.68-9.27-13.55-12.63a4.59,4.59,0,1,0-3.26,8.59c7.3,2.76,8.16,6.64,8.86,9.48a6.67,6.67,0,0,0,3.86,5.52,5.06,5.06,0,0,0,1.77.34,7.7,7.7,0,0,0,4.36-1.77c1.93-1.36,4.75-3.33,11-1.1-1.24-3.44-2.58-6.84-4-10.17h0A17.7,17.7,0,0,0,365.82,167.68Z" transform="translate(0 -28.6)"/><path class="cls-3" d="M345.16,138a4.59,4.59,0,0,0,1.12,9.12c7.74-.94,10.31,2.09,12.19,4.31a7.11,7.11,0,0,0,5.31,3.17h.71a5.32,5.32,0,0,0,3.77-2.39h0q-2.6-4.85-5.47-9.52h0C359.58,139.85,354.27,136.87,345.16,138Z" transform="translate(0 -28.6)"/><path class="cls-3" d="M347.11,121.05c-1-1.21-2-2.39-3.06-3.55h0a25.9,25.9,0,0,0-10.07-.56,4.59,4.59,0,0,0,1.12,9.12h0c7.74-.94,10.31,2.09,12.19,4.31a7.11,7.11,0,0,0,5.31,3.17h.71a5,5,0,0,0,2.61-1.14h0c-.91-1.25-1.78-2.49-2.75-3.73l-.16-.22-.11-.14c-.86-1.15-1.77-2.28-2.64-3.4h-.08a1.18,1.18,0,0,1-.13-.18c-.94-1.15-1.88-2.32-2.83-3.54Z" transform="translate(0 -28.6)"/><path class="cls-3" d="M46.25,306.2c.33,4.17,2.11,10.17,9.78,15.74a4.5,4.5,0,0,0,2.09.83,4.59,4.59,0,0,0,3.29-8.27c-6.3-4.58-6.13-8.54-6-11.45a6.65,6.65,0,0,0-2.29-6.34,6.34,6.34,0,0,0-6.29-.23,9.71,9.71,0,0,1-9.17-.73c1.22,3.63,2.58,7.21,4,10.72A17.42,17.42,0,0,0,46.25,306.2Z" transform="translate(0 -28.6)"/></g></svg>