<svg id="Layer_1" data-name="Layer 1" xmlns="http://www.w3.org/2000/svg" viewBox="0 0 499.17 387.55"><defs><style>.cls-1{fill:#fff;}</style></defs><path class="cls-1" d="M192,446.66a25.49,25.49,0,0,1-36,0L12.06,302.76a38.19,38.19,0,0,1,0-54l18-18a38.19,38.19,0,0,1,54.05,0L174,320.53,416.72,77.77a38.22,38.22,0,0,1,54.06,0l18,18a38.22,38.22,0,0,1,0,54.06Z" transform="translate(-0.83 -66.57)"/><path class="cls-1" d="M57.09,219.47a38,38,0,0,0-27,11.22l-18,18a38.21,38.21,0,0,0,0,54l143.9,143.9a25.52,25.52,0,0,0,36.06,0l58.44-58.44V244.07L174,320.53,84.13,230.69A38,38,0,0,0,57.09,219.47Z" transform="translate(-0.83 -66.57)"/></svg>