<svg id="Layer_1" data-name="Layer 1" xmlns="http://www.w3.org/2000/svg" viewBox="0 0 499.99 500"><defs><style>.cls-1{fill:#fff;}</style></defs><path class="cls-1" d="M487.75,404.69,95.88,12.82a43.73,43.73,0,0,0-61.86,0L13.4,33.44a43.73,43.73,0,0,0,0,61.86L405.27,487.17a43.73,43.73,0,0,0,61.86,0l20.62-20.62a43.73,43.73,0,0,0,0-61.86Z" transform="translate(-0.58)"/><path class="cls-1" d="M405.27,12.82,13.4,404.69a43.73,43.73,0,0,0,0,61.86L34,487.17a43.73,43.73,0,0,0,61.86,0L487.75,95.3a43.73,43.73,0,0,0,0-61.86L467.13,12.82a43.73,43.73,0,0,0-61.86,0Z" transform="translate(-0.58)"/><path class="cls-1" d="M65,0A43.58,43.58,0,0,0,34,12.82L13.4,33.44a43.73,43.73,0,0,0,0,61.86L168.09,250l82.48-82.48L95.88,12.82A43.5,43.5,0,0,0,65,0Z" transform="translate(-0.58)"/><path class="cls-1" d="M250.57,167.51,168.09,250,13.4,404.69a43.73,43.73,0,0,0,0,61.86L34,487.17a43.7,43.7,0,0,0,61.86,0l154.69-154.7Z" transform="translate(-0.58)"/></svg>