<svg id="Chain" xmlns="http://www.w3.org/2000/svg" viewBox="0 0 500 500"><defs><style>.cls-1{fill:#fff;}</style></defs><path class="cls-1" d="M250,0C111.93,0,0,111.93,0,250S111.93,500,250,500,500,388.07,500,250,388.07,0,250,0Zm4.55,353.34-23.78,23.78-2.9,2.91-.11.1h0A75.93,75.93,0,0,1,120.16,273l-.11-.11,53.49-53.49,3.36-3.36.22-.22h0a75.2,75.2,0,0,1,104.36,1.79c.35.35.69.72,1,1.08a18.76,18.76,0,0,1-26.9,26.1l-.73-.72a37.56,37.56,0,0,0-53.62,1.2L155.87,291l-7.72,7.76h0a37.59,37.59,0,0,0,53.29,53h0l8-8,18.28-18.38,0,0a19.4,19.4,0,0,1,33.11,13.43c0,.1,0,.2,0,.3A19.32,19.32,0,0,1,254.55,353.34ZM377.82,229.48,324.33,283,321,286.33l-.22.22h0a75.19,75.19,0,0,1-104.35-1.79c-.36-.35-.69-.72-1-1.08a18.76,18.76,0,0,1,26.91-26.1l.72.72a37.56,37.56,0,0,0,53.62-1.2L342,211.46l7.72-7.76h0a37.59,37.59,0,0,0-53.29-53h0l-8,8-18.28,18.38,0,0A19.39,19.39,0,0,1,237,163.66c0-.1,0-.2,0-.3a19.32,19.32,0,0,1,6.31-14.29l23.78-23.78,2.9-2.91.11-.1h0a75.93,75.93,0,0,1,107.6,107.09Z"/></svg>