<svg xmlns="http://www.w3.org/2000/svg" viewBox="0 0 417.5 474.68"><defs><style>.cls-1{fill:none;stroke:#ffb700;stroke-linejoin:round;stroke-width:20px;}.cls-2{fill:#fff;}.cls-3{fill:#fa0000;}</style></defs><g id="Shield"><path class="cls-1" d="M447.22,132.43a250.61,250.61,0,0,1-94.66-22.66c-56.7-26.13-88.78-67-102.56-87.11-13.78,20.14-45.86,61-102.56,87.11a250.61,250.61,0,0,1-94.66,22.66c-3.5,26.74-6.05,124.64,52.87,227.59C153.48,443.6,221.55,465.44,250,477.34c28.45-11.9,96.52-33.74,144.35-117.32C453.27,257.07,450.72,159.17,447.22,132.43Z" transform="translate(-41.25 -12.66)"/></g><g id="Baseball"><circle class="cls-2" cx="208.75" cy="303.76" r="102.02"/><path class="cls-3" d="M195.61,273.81c-4.38-.36-5.46-2.33-6.25-3.77a3.79,3.79,0,0,0-3-2.4,3.61,3.61,0,0,0-3.11,1.74c-.92,1.15-2.32,2.9-7.14,2.18a2.59,2.59,0,1,0-.77,5.13c5.64.84,8.73-.86,10.48-2.45,1.38,1.91,4,4.3,9.33,4.73h.22a2.59,2.59,0,0,0,.2-5.17Z" transform="translate(-41.25 -12.66)"/><path class="cls-3" d="M199.22,262.85c-4.07-1.68-4.49-3.89-4.8-5.5a3.8,3.8,0,0,0-2.08-3.19,3.6,3.6,0,0,0-3.49.71c-1.24.81-3.11,2.05-7.48-.11a2.59,2.59,0,1,0-2.29,4.64c5.1,2.53,8.57,1.86,10.72.88.73,2.24,2.49,5.31,7.44,7.36a2.47,2.47,0,0,0,1,.2,2.59,2.59,0,0,0,1-5Z" transform="translate(-41.25 -12.66)"/><path class="cls-3" d="M205.28,249.46c-4-1.81-4.37-4-4.63-5.64a3.77,3.77,0,0,0-2-3.26,3.62,3.62,0,0,0-3.51.59c-1.26.78-3.16,2-7.46-.34a2.59,2.59,0,0,0-2.45,4.57c5,2.69,8.51,2.13,10.7,1.22.66,2.26,2.31,5.38,7.2,7.59a2.63,2.63,0,0,0,1.06.23,2.6,2.6,0,0,0,1.07-5Z" transform="translate(-41.25 -12.66)"/><path class="cls-3" d="M211.29,235.83c-4-1.82-4.37-4-4.63-5.65a3.74,3.74,0,0,0-2-3.25,3.62,3.62,0,0,0-3.51.58,5.42,5.42,0,0,1-3,1q-3,1.78-5.88,3.75c4.47,2.08,7.62,1.54,9.65.7.66,2.26,2.31,5.39,7.2,7.59a2.47,2.47,0,0,0,1.06.23,2.59,2.59,0,0,0,1.07-4.95Z" transform="translate(-41.25 -12.66)"/><path class="cls-3" d="M194.24,288.53c-4.38-.35-5.46-2.32-6.25-3.76a3.79,3.79,0,0,0-3-2.4,3.64,3.64,0,0,0-3.11,1.73c-.92,1.16-2.32,2.91-7.14,2.19a2.59,2.59,0,1,0-.77,5.12c5.64.85,8.73-.85,10.48-2.44,1.38,1.91,4,4.3,9.33,4.73H194a2.59,2.59,0,0,0,.2-5.18Z" transform="translate(-41.25 -12.66)"/><path class="cls-3" d="M192.86,303.26c-4.39-.36-5.47-2.33-6.26-3.76a3.72,3.72,0,0,0-2.95-2.4,3.62,3.62,0,0,0-3.11,1.73c-.93,1.16-2.33,2.9-7.15,2.18a2.59,2.59,0,1,0-.77,5.13c5.64.84,8.73-.85,10.49-2.45,1.38,1.92,4,4.3,9.33,4.74h.21a2.59,2.59,0,0,0,.21-5.17Z" transform="translate(-41.25 -12.66)"/><path class="cls-3" d="M189.91,321.52c-4-1.9-4.28-4.12-4.51-5.74a3.78,3.78,0,0,0-1.91-3.3A3.62,3.62,0,0,0,180,313c-1.28.75-3.2,1.89-7.46-.5A2.59,2.59,0,1,0,170,317c5,2.79,8.47,2.3,10.67,1.44.61,2.28,2.21,5.43,7,7.74a2.59,2.59,0,1,0,2.23-4.68Z" transform="translate(-41.25 -12.66)"/><path class="cls-3" d="M182.9,334.31c-4-1.89-4.28-4.11-4.51-5.74a3.75,3.75,0,0,0-1.91-3.29,3.62,3.62,0,0,0-3.52.51c-1.28.76-3.21,1.89-7.46-.5a2.59,2.59,0,1,0-2.54,4.52c5,2.8,8.47,2.31,10.67,1.44.61,2.28,2.2,5.44,7,7.74a2.59,2.59,0,0,0,2.23-4.68Z" transform="translate(-41.25 -12.66)"/><path class="cls-3" d="M175.47,347.55c-3.88-2.08-4.08-4.32-4.23-5.95a3.78,3.78,0,0,0-1.74-3.39,3.62,3.62,0,0,0-3.55.35c-1.31.69-3.29,1.73-7.42-.87a2.59,2.59,0,0,0-2.76,4.39c4.83,3,8.34,2.72,10.59,2,.5,2.31,1.93,5.54,6.65,8.08a2.6,2.6,0,0,0,2.46-4.57Z" transform="translate(-41.25 -12.66)"/><path class="cls-3" d="M277.17,333.83c.48-2.31.47-5.85-2.81-10.08a2.59,2.59,0,0,0-4.1,3.18c2.7,3.48,2,5.6,1.46,7.15a3.74,3.74,0,0,0,.22,3.8,3.65,3.65,0,0,0,3.38,1.13c1.48-.1,3.71-.25,6.44,3.79a2.59,2.59,0,1,0,4.3-2.9C282.87,335.18,279.53,334,277.17,333.83Z" transform="translate(-41.25 -12.66)"/><path class="cls-3" d="M289.12,325.84c.56-2.29.68-5.83-2.46-10.17a2.59,2.59,0,1,0-4.2,3c2.58,3.57,1.78,5.67,1.2,7.2a3.77,3.77,0,0,0,.09,3.81,3.62,3.62,0,0,0,3.34,1.24c1.48,0,3.71-.12,6.29,4a2.6,2.6,0,0,0,2.21,1.22,2.67,2.67,0,0,0,1.37-.39,2.59,2.59,0,0,0,.82-3.57C294.77,327.39,291.47,326.14,289.12,325.84Z" transform="translate(-41.25 -12.66)"/><path class="cls-3" d="M302.49,318.46c.76-2.24,1.19-5.75-1.54-10.35a2.59,2.59,0,0,0-4.46,2.64c2.25,3.79,1.27,5.81.55,7.28a3.76,3.76,0,0,0-.24,3.8,3.58,3.58,0,0,0,3.21,1.53c1.48.09,3.71.22,5.92,4.57a2.58,2.58,0,0,0,2.31,1.42,2.61,2.61,0,0,0,1.17-.28,2.58,2.58,0,0,0,1.14-3.48C308,320.5,304.8,319,302.49,318.46Z" transform="translate(-41.25 -12.66)"/><path class="cls-3" d="M315.26,311.09c.76-2.24,1.19-5.74-1.54-10.35a2.59,2.59,0,1,0-4.46,2.65c2.25,3.78,1.27,5.8.55,7.27a3.78,3.78,0,0,0-.25,3.8,3.64,3.64,0,0,0,3.22,1.54c1.47.08,3.71.21,5.91,4.56A2.61,2.61,0,0,0,321,322a2.5,2.5,0,0,0,1.17-.29,2.6,2.6,0,0,0,1.14-3.48C320.74,313.14,317.57,311.6,315.26,311.09Z" transform="translate(-41.25 -12.66)"/><path class="cls-3" d="M329.12,303.72H329c.23-2.35-.13-5.87-3.83-9.74a2.59,2.59,0,1,0-3.75,3.57c3,3.19,2.54,5.38,2.17,7a3.77,3.77,0,0,0,.61,3.76,3.62,3.62,0,0,0,3.48.77c1.46-.24,3.66-.62,6.79,3.13a2.59,2.59,0,0,0,4-3.32C334.87,304.55,331.48,303.72,329.12,303.72Z" transform="translate(-41.25 -12.66)"/><path class="cls-3" d="M347.71,295.37c-4.44-3.57-8-3.67-10.28-3.18-.23-2.35-1.28-5.72-5.67-8.79a2.59,2.59,0,1,0-3,4.25c3.6,2.52,3.54,4.76,3.5,6.4a3.78,3.78,0,0,0,1.34,3.57,3.63,3.63,0,0,0,3.56.07c1.38-.54,3.47-1.34,7.27,1.72a2.59,2.59,0,1,0,3.25-4Z" transform="translate(-41.25 -12.66)"/><path class="cls-3" d="M264.42,342.05c.53-2.3.61-5.84-2.58-10.15a2.59,2.59,0,0,0-4.16,3.08c2.61,3.54,1.84,5.65,1.28,7.19a3.76,3.76,0,0,0,.13,3.81,3.62,3.62,0,0,0,3.35,1.2c1.49-.07,3.72-.16,6.35,3.95a2.59,2.59,0,0,0,4.36-2.8C270.08,343.53,266.77,342.32,264.42,342.05Z" transform="translate(-41.25 -12.66)"/><path class="cls-3" d="M264.73,352.64c-5.14-2.46-8.59-1.75-10.74-.74-.75-2.23-2.55-5.28-7.52-7.27a2.59,2.59,0,1,0-1.92,4.82c4.08,1.63,4.54,3.83,4.87,5.43a3.78,3.78,0,0,0,2.12,3.17,3,3,0,0,0,1.05.2,4.39,4.39,0,0,0,2.43-.95c1.22-.83,3.07-2.09,7.47,0a2.59,2.59,0,1,0,2.24-4.68Z" transform="translate(-41.25 -12.66)"/><path class="cls-3" d="M258.17,365.78c-5.14-2.46-8.6-1.75-10.74-.74-.76-2.24-2.55-5.28-7.53-7.27a2.59,2.59,0,0,0-1.92,4.82c4.09,1.63,4.54,3.83,4.87,5.43a3.8,3.8,0,0,0,2.12,3.17,3,3,0,0,0,1.06.2,4.33,4.33,0,0,0,2.42-.95c1.23-.83,3.08-2.09,7.48,0a2.59,2.59,0,1,0,2.24-4.68Z" transform="translate(-41.25 -12.66)"/><path class="cls-3" d="M251.77,379.05c-5.14-2.47-8.6-1.75-10.74-.74-.76-2.24-2.55-5.29-7.53-7.27a2.59,2.59,0,1,0-1.92,4.81c4.09,1.63,4.54,3.83,4.87,5.44a3.77,3.77,0,0,0,2.12,3.16,2.81,2.81,0,0,0,1.06.21,4.33,4.33,0,0,0,2.42-1c1.23-.83,3.08-2.09,7.48,0a2.59,2.59,0,1,0,2.24-4.67Z" transform="translate(-41.25 -12.66)"/><path class="cls-3" d="M234.14,396.81a3.78,3.78,0,0,0,3.09,2.22h.06a3.64,3.64,0,0,0,3-1.91c.85-1.21,2.15-3,7-2.6a2.59,2.59,0,1,0,.47-5.16c-5.68-.51-8.66,1.36-10.32,3.05-1.49-1.83-4.24-4.06-9.59-4.18a2.59,2.59,0,0,0-.12,5.18C232.08,393.52,233.27,395.42,234.14,396.81Z" transform="translate(-41.25 -12.66)"/><path class="cls-3" d="M248.75,401.14c-5.6,1.07-8,3.7-9.09,5.78-1.93-1.35-5.19-2.74-10.37-1.38a2.59,2.59,0,1,0,1.32,5c4.25-1.11,5.92.39,7.14,1.49a4.32,4.32,0,0,0,2.8,1.39,2.83,2.83,0,0,0,.79-.11,3.62,3.62,0,0,0,2.36-2.66c.49-1.4,1.23-3.51,6-4.43a2.59,2.59,0,0,0-1-5.09Z" transform="translate(-41.25 -12.66)"/><path class="cls-3" d="M338.66,277.1c-.79-2.22-2.64-5.23-7.65-7.13a2.59,2.59,0,0,0-1.84,4.85c4.12,1.56,4.61,3.75,5,5.35a3.78,3.78,0,0,0,2.18,3.12,2.9,2.9,0,0,0,1,.19,4.31,4.31,0,0,0,2.46-1c1.09-.77,2.68-1.88,6.23-.62-.7-1.94-1.46-3.86-2.27-5.74h0A10,10,0,0,0,338.66,277.1Z" transform="translate(-41.25 -12.66)"/><path class="cls-3" d="M327,260.33a2.59,2.59,0,0,0,.63,5.15c4.37-.53,5.82,1.18,6.88,2.43a4,4,0,0,0,3,1.79l.4,0a3,3,0,0,0,2.13-1.35h0q-1.47-2.73-3.09-5.37h0C335.14,261.39,332.14,259.71,327,260.33Z" transform="translate(-41.25 -12.66)"/><path class="cls-3" d="M328.1,250.78c-.57-.68-1.14-1.35-1.73-2h0a14.54,14.54,0,0,0-5.68-.32,2.59,2.59,0,0,0,.63,5.15c4.37-.53,5.82,1.18,6.88,2.43a4,4,0,0,0,3,1.79l.4,0a2.8,2.8,0,0,0,1.47-.64h0c-.51-.71-1-1.41-1.55-2.11l-.09-.12-.06-.08c-.49-.65-1-1.29-1.49-1.92l-.05,0a.86.86,0,0,1-.07-.1c-.53-.65-1.06-1.31-1.6-2Z" transform="translate(-41.25 -12.66)"/><path class="cls-3" d="M158.28,355.29c.19,2.35,1.19,5.74,5.52,8.88a2.56,2.56,0,0,0,1.18.47,2.59,2.59,0,0,0,1.86-4.67c-3.56-2.58-3.46-4.82-3.39-6.46a3.76,3.76,0,0,0-1.29-3.58,3.58,3.58,0,0,0-3.55-.13,5.49,5.49,0,0,1-5.18-.41c.69,2.05,1.46,4.07,2.28,6.05A9.91,9.91,0,0,0,158.28,355.29Z" transform="translate(-41.25 -12.66)"/></g><g id="Fonts"><g id="EQUIPO"><path class="cls-2" d="M111.52,188.53a1.41,1.41,0,0,1-1.08-.45A1.49,1.49,0,0,1,110,187V148a1.44,1.44,0,0,1,1.5-1.5h28A1.44,1.44,0,0,1,141,148v5.64a1.44,1.44,0,0,1-1.5,1.5H120.4v8.1h17.82a1.41,1.41,0,0,1,1.08.45,1.57,1.57,0,0,1,.42,1.11v5.22a1.49,1.49,0,0,1-.42,1,1.41,1.41,0,0,1-1.08.45H120.4v8.34H140a1.44,1.44,0,0,1,1.5,1.5V187a1.49,1.49,0,0,1-.42,1.05,1.41,1.41,0,0,1-1.08.45Z" transform="translate(-41.25 -12.66)"/><path class="cls-2" d="M186.76,192.43a2,2,0,0,1-1.47-.51q-.51-.51-.81-.87l-2-2.7a16.86,16.86,0,0,1-5.34.78,23.41,23.41,0,0,1-9.57-1.8,14.18,14.18,0,0,1-6.36-5.43,17.75,17.75,0,0,1-2.49-9.09q-.06-2.58-.06-5.19t.06-5.19a17.79,17.79,0,0,1,2.52-9.09,14.59,14.59,0,0,1,6.42-5.55,25.24,25.24,0,0,1,19,0,14.78,14.78,0,0,1,6.45,5.55,17.22,17.22,0,0,1,2.49,9.09q.12,2.58.12,5.19t-.12,5.19q-.3,7.44-4.32,11.52l4.38,6.24a.65.65,0,0,1,.12.24,1.13,1.13,0,0,1,.06.36,1,1,0,0,1-.3.87,1.17,1.17,0,0,1-.9.39Zm-9.66-11.94a7.2,7.2,0,0,0,5.19-1.92q2-1.92,2.13-6.12.12-2.64.12-5t-.12-4.86a10.05,10.05,0,0,0-1-4.59,6.18,6.18,0,0,0-2.55-2.61,7.92,7.92,0,0,0-3.75-.84,7.83,7.83,0,0,0-3.66.84,6,6,0,0,0-2.55,2.61,10.87,10.87,0,0,0-1,4.59q-.06,2.52-.06,4.86t.06,5q.18,4.2,2.16,6.12A7,7,0,0,0,177.1,180.49Z" transform="translate(-41.25 -12.66)"/><path class="cls-2" d="M232.36,189.13a23.6,23.6,0,0,1-9.51-1.77,13.37,13.37,0,0,1-6.27-5.46,18,18,0,0,1-2.22-9.39V148a1.44,1.44,0,0,1,1.5-1.5h7.74a1.57,1.57,0,0,1,1.11.42,1.41,1.41,0,0,1,.45,1.08v24.42q0,3.9,1.86,5.85a8.08,8.08,0,0,0,10.53,0q1.89-2,1.89-5.85V148a1.41,1.41,0,0,1,.45-1.08,1.49,1.49,0,0,1,1.05-.42h7.8a1.49,1.49,0,0,1,1,.42,1.41,1.41,0,0,1,.45,1.08v24.48A18,18,0,0,1,248,181.9a13.4,13.4,0,0,1-6.24,5.46A23.22,23.22,0,0,1,232.36,189.13Z" transform="translate(-41.25 -12.66)"/><path class="cls-2" d="M271.72,188.53a1.41,1.41,0,0,1-1.08-.45,1.49,1.49,0,0,1-.42-1.05V148a1.44,1.44,0,0,1,1.5-1.5h8a1.57,1.57,0,0,1,1.11.42,1.41,1.41,0,0,1,.45,1.08v39a1.44,1.44,0,0,1-.45,1.05,1.51,1.51,0,0,1-1.11.45Z" transform="translate(-41.25 -12.66)"/><path class="cls-2" d="M303.16,188.53a1.41,1.41,0,0,1-1.08-.45,1.49,1.49,0,0,1-.42-1.05V148a1.44,1.44,0,0,1,1.5-1.5H320a22.53,22.53,0,0,1,8.67,1.53,12.56,12.56,0,0,1,5.76,4.59,13.52,13.52,0,0,1,2.07,7.74,13.12,13.12,0,0,1-2.07,7.62,12.16,12.16,0,0,1-5.76,4.44,23.79,23.79,0,0,1-8.67,1.44h-7.14V187a1.44,1.44,0,0,1-.45,1.05,1.51,1.51,0,0,1-1.11.45Zm9.48-22.92h7a6.08,6.08,0,0,0,4.11-1.32,5,5,0,0,0,1.53-4,5.74,5.74,0,0,0-1.32-3.84q-1.32-1.56-4.32-1.56h-7Z" transform="translate(-41.25 -12.66)"/><path class="cls-2" d="M371.38,189.13a23.63,23.63,0,0,1-9.6-1.8,14,14,0,0,1-6.36-5.43,18.36,18.36,0,0,1-2.52-9.09q-.06-2.58-.06-5.19t.06-5.19a18.4,18.4,0,0,1,2.55-9.09,14.38,14.38,0,0,1,6.42-5.55,25.32,25.32,0,0,1,19.05,0,14.59,14.59,0,0,1,6.42,5.55,17.79,17.79,0,0,1,2.52,9.09q.12,2.58.12,5.19t-.12,5.19a17.75,17.75,0,0,1-2.49,9.09,14.15,14.15,0,0,1-6.39,5.43A23.63,23.63,0,0,1,371.38,189.13Zm0-8.64a7.2,7.2,0,0,0,5.19-1.92q2-1.92,2.13-6.12.12-2.64.12-5t-.12-4.86a10.87,10.87,0,0,0-1.05-4.59,6,6,0,0,0-2.55-2.61,8,8,0,0,0-3.72-.84,7.83,7.83,0,0,0-3.66.84,6.13,6.13,0,0,0-2.58,2.61,10.56,10.56,0,0,0-1.08,4.59q-.06,2.52-.06,4.86t.06,5q.18,4.2,2.19,6.12A7.12,7.12,0,0,0,371.38,180.49Z" transform="translate(-41.25 -12.66)"/></g></g></svg>