<svg id="Layer_2" data-name="Layer 2" xmlns="http://www.w3.org/2000/svg" viewBox="0 0 499.14 499.14"><defs><style>.cls-1{fill:#fff;}</style></defs><path class="cls-1" d="M250,.21C112.17.21.43,112,.43,249.79S112.17,499.36,250,499.36,499.57,387.62,499.57,249.79,387.83.21,250,.21Zm0,67.39a83.34,83.34,0,1,1-83.33,83.33A83.33,83.33,0,0,1,250,67.6Zm-1.25,382c-78.18,0-161.29-50.06-157.6-87.83,3.67-37.5,92.75-61.27,157.6-61.27s153.93,23.77,157.6,61.27C410,399.49,326.93,449.55,248.75,449.55Z" transform="translate(-0.43 -0.21)"/></svg>