<svg id="Layer_1" data-name="Layer 1" xmlns="http://www.w3.org/2000/svg" viewBox="0 0 417.51 417.51"><defs><style>.cls-1{fill:#fff;}.cls-2{fill:#fa0000;}</style></defs><g id="Baseball"><circle class="cls-1" cx="208.76" cy="208.76" r="208.76"/><path class="cls-2" d="M97.45,150.15c-9-.74-11.17-4.77-12.79-7.71a7.74,7.74,0,0,0-6.14-4.91,7.36,7.36,0,0,0-6.36,3.56c-1.88,2.35-4.75,5.93-14.61,4.46A5.3,5.3,0,1,0,56,156h0c11.54,1.72,17.87-1.76,21.45-5,2.82,3.91,8.18,8.8,19.09,9.68H97a5.3,5.3,0,0,0,.41-10.58Z" transform="translate(0.01 -28.58)"/><path class="cls-2" d="M104.84,127.72c-8.33-3.43-9.19-8-9.82-11.25a7.81,7.81,0,0,0-4.26-6.53,7.34,7.34,0,0,0-7.14,1.46c-2.54,1.65-6.37,4.19-15.31-.23a5.3,5.3,0,0,0-5.13,9.28,4.54,4.54,0,0,0,.45.21c10.43,5.18,17.53,3.81,21.93,1.81,1.5,4.58,5.1,10.86,15.23,15.06a5.08,5.08,0,0,0,2,.4,5.3,5.3,0,0,0,2-10.23Z" transform="translate(0.01 -28.58)"/><path class="cls-2" d="M117.24,100.33c-8.19-3.71-8.94-8.19-9.48-11.55a7.71,7.71,0,0,0-4.09-6.67,7.42,7.42,0,0,0-7.18,1.21c-2.58,1.6-6.47,4.09-15.27-.69a5.3,5.3,0,1,0-5,9.35h0c10.23,5.5,17.41,4.36,21.9,2.49,1.35,4.63,4.72,11,14.73,15.53a5.23,5.23,0,0,0,2.17.47,5.32,5.32,0,0,0,2.19-10.23Z" transform="translate(0.01 -28.58)"/><path class="cls-2" d="M129.54,72.44c-8.19-3.73-8.95-8.19-9.48-11.57A7.65,7.65,0,0,0,116,54.22a7.39,7.39,0,0,0-7.18,1.19,11.12,11.12,0,0,1-6.14,2.05q-6.14,3.63-12,7.67c9.14,4.26,15.59,3.15,19.74,1.43,1.35,4.63,4.73,11,14.74,15.53a4.89,4.89,0,0,0,2.16.47,5.29,5.29,0,0,0,2.19-10.12Z" transform="translate(0.01 -28.58)"/><path class="cls-2" d="M94.65,180.27c-9-.72-11.17-4.75-12.79-7.69a7.74,7.74,0,0,0-6.14-4.91,7.43,7.43,0,0,0-6.36,3.54c-1.89,2.37-4.75,5.95-14.61,4.48a5.3,5.3,0,1,0-1.9,10.43l.32,0c11.54,1.74,17.86-1.74,21.44-5,2.83,3.91,8.19,8.8,19.1,9.68h.45a5.3,5.3,0,0,0,.41-10.6Z" transform="translate(0.01 -28.58)"/><path class="cls-2" d="M91.82,210.41c-9-.73-11.19-4.77-12.81-7.69a7.59,7.59,0,0,0-6-4.91,7.39,7.39,0,0,0-6.37,3.54c-1.9,2.37-4.76,5.93-14.63,4.46a5.3,5.3,0,0,0-1.57,10.49h0c11.54,1.72,17.86-1.73,21.46-5,2.83,3.93,8.19,8.8,19.09,9.7h.43a5.3,5.3,0,0,0,.43-10.58Z" transform="translate(0.01 -28.58)"/><path class="cls-2" d="M85.79,247.78C77.6,243.89,77,239.35,76.56,236a7.73,7.73,0,0,0-3.91-6.75,7.4,7.4,0,0,0-7.14,1.06c-2.62,1.54-6.55,3.87-15.27-1a5.3,5.3,0,1,0-5.84,8.84,5.19,5.19,0,0,0,.65.37c10.23,5.71,17.33,4.7,21.83,2.94,1.25,4.67,4.52,11.11,14.32,15.84a5.31,5.31,0,0,0,4.57-9.58Z" transform="translate(0.01 -28.58)"/><path class="cls-2" d="M71.44,274c-8.18-3.87-8.75-8.41-9.23-11.75a7.65,7.65,0,0,0-3.9-6.73,7.43,7.43,0,0,0-7.21,1c-2.62,1.56-6.56,3.87-15.26-1a5.31,5.31,0,0,0-5.2,9.25c10.23,5.73,17.33,4.73,21.83,2.95,1.25,4.66,4.51,11.13,14.33,15.83A5.3,5.3,0,1,0,71.36,274Z" transform="translate(0.01 -28.58)"/><path class="cls-2" d="M56.24,301c-7.94-4.26-8.35-8.84-8.66-12.18A7.71,7.71,0,0,0,44,281.93a7.4,7.4,0,0,0-7.26.71c-2.68,1.42-6.73,3.54-15.18-1.78a5.31,5.31,0,0,0-5.65,9C25.81,296,33,295.41,37.6,293.94c1,4.73,3.95,11.33,13.61,16.53a5.32,5.32,0,0,0,5-9.35Z" transform="translate(0.01 -28.58)"/><path class="cls-2" d="M264.34,273c1-4.72,1-12-5.75-20.62a5.31,5.31,0,1,0-8.39,6.51h0c5.53,7.12,4.09,11.45,3,14.63a7.63,7.63,0,0,0,.45,7.77,7.44,7.44,0,0,0,6.91,2.31c3-.2,7.6-.51,13.18,7.76a5.31,5.31,0,0,0,8.8-5.93C276,275.73,269.17,273.31,264.34,273Z" transform="translate(0.01 -28.58)"/><path class="cls-2" d="M288.79,256.62c1.15-4.69,1.39-11.93-5-20.81a5.3,5.3,0,0,0-9.12,5.4,5.63,5.63,0,0,0,.52.73c5.28,7.31,3.65,11.61,2.46,14.74a7.73,7.73,0,0,0,.18,7.79,7.41,7.41,0,0,0,6.84,2.54c3,0,7.59-.25,12.87,8.19a5.3,5.3,0,0,0,4.52,2.49,5.48,5.48,0,0,0,2.81-.8,5.29,5.29,0,0,0,1.67-7.3h0C300.35,259.79,293.6,257.23,288.79,256.62Z" transform="translate(0.01 -28.58)"/><path class="cls-2" d="M316.15,241.51c1.56-4.58,2.44-11.76-3.15-21.17a5.3,5.3,0,1,0-9.13,5.4h0c4.61,7.75,2.6,11.89,1.13,14.89a7.7,7.7,0,0,0-.49,7.78,7.32,7.32,0,0,0,6.57,3.13c3,.18,7.59.45,12.11,9.35a5.3,5.3,0,0,0,9.47-4.75l0,0C327.43,245.69,320.88,242.62,316.15,241.51Z" transform="translate(0.01 -28.58)"/><path class="cls-2" d="M342.28,226.43c1.56-4.58,2.44-11.74-3.15-21.17a5.31,5.31,0,1,0-9.13,5.42c4.61,7.73,2.6,11.87,1.13,14.87a7.72,7.72,0,0,0-.51,7.78,7.44,7.44,0,0,0,6.59,3.15c3,.16,7.59.43,12.09,9.33a5.35,5.35,0,0,0,4.73,2.95,5.13,5.13,0,0,0,2.39-.6,5.32,5.32,0,0,0,2.33-7.12C353.49,230.63,347,227.48,342.28,226.43Z" transform="translate(0.01 -28.58)"/><path class="cls-2" d="M370.64,211.35h-.24c.47-4.81-.27-12-7.84-19.93a5.3,5.3,0,0,0-7.9,7.07l.23.24c6.13,6.53,5.19,11,4.44,14.32a7.73,7.73,0,0,0,1.24,7.7,7.45,7.45,0,0,0,7.13,1.57c3-.49,7.48-1.27,13.89,6.41a5.32,5.32,0,1,0,8.18-6.8C382.41,213.05,375.47,211.35,370.64,211.35Z" transform="translate(0.01 -28.58)"/><path class="cls-2" d="M408.68,194.27c-9.08-7.31-16.37-7.51-21-6.51-.47-4.81-2.62-11.7-11.61-18a5.32,5.32,0,0,0-6.14,8.7c7.37,5.16,7.25,9.74,7.17,13.1a7.72,7.72,0,0,0,2.74,7.3,7.41,7.41,0,0,0,7.28.14c2.83-1.1,7.1-2.74,14.88,3.52a5.3,5.3,0,1,0,7.47-7.51,4.8,4.8,0,0,0-.82-.67Z" transform="translate(0.01 -28.58)"/><path class="cls-2" d="M238.25,289.78c1.09-4.7,1.25-11.95-5.28-20.76a5.3,5.3,0,0,0-8.51,6.3c5.34,7.24,3.76,11.56,2.62,14.71a7.72,7.72,0,0,0,.26,7.8,7.42,7.42,0,0,0,6.86,2.45c3.05-.14,7.61-.33,13,8.08a5.3,5.3,0,1,0,8.92-5.73C249.83,292.81,243.06,290.34,238.25,289.78Z" transform="translate(0.01 -28.58)"/><path class="cls-2" d="M238.89,311.45c-10.52-5-17.58-3.58-22-1.51-1.54-4.56-5.22-10.8-15.39-14.88a5.31,5.31,0,0,0-3.93,9.87c8.35,3.33,9.29,7.83,10,11.11a7.74,7.74,0,0,0,4.34,6.48,5.81,5.81,0,0,0,2.14.41,9,9,0,0,0,5-1.94c2.49-1.7,6.28-4.28,15.28,0a5.31,5.31,0,0,0,4.59-9.58h0Z" transform="translate(0.01 -28.58)"/><path class="cls-2" d="M225.46,338.34c-10.52-5-17.6-3.58-22-1.51-1.56-4.59-5.22-10.81-15.41-14.88a5.31,5.31,0,1,0-3.93,9.86c8.37,3.34,9.29,7.84,10,11.11a7.79,7.79,0,0,0,4.34,6.49,6,6,0,0,0,2.17.41,8.81,8.81,0,0,0,4.95-1.94c2.52-1.7,6.31-4.28,15.31,0a5.31,5.31,0,1,0,4.58-9.58Z" transform="translate(0.01 -28.58)"/><path class="cls-2" d="M212.37,365.49c-10.52-5.05-17.6-3.58-22-1.51-1.56-4.58-5.22-10.82-15.41-14.88a5.3,5.3,0,0,0-4.12,9.77l.19.08c8.37,3.33,9.29,7.83,10,11.13a7.69,7.69,0,0,0,4.34,6.46,5.53,5.53,0,0,0,2.17.43,8.87,8.87,0,0,0,4.95-2c2.51-1.7,6.3-4.28,15.3,0a5.3,5.3,0,0,0,4.73-9.49l-.14-.07Z" transform="translate(0.01 -28.58)"/><path class="cls-2" d="M176.29,401.84a7.75,7.75,0,0,0,6.32,4.54h.13a7.48,7.48,0,0,0,6.14-3.91c1.74-2.48,4.4-6.14,14.32-5.32a5.3,5.3,0,0,0,1-10.56h0c-11.62-1-17.72,2.78-21.12,6.24-3-3.74-8.67-8.31-19.62-8.55a5.3,5.3,0,1,0-.24,10.6C172.08,395.1,174.51,399,176.29,401.84Z" transform="translate(0.01 -28.58)"/><path class="cls-2" d="M206.19,410.7c-11.46,2.19-16.37,7.57-18.6,11.82-4-2.76-10.62-5.6-21.22-2.82a5.3,5.3,0,1,0,2.11,10.39c.2,0,.39-.1.59-.16,8.69-2.27,12.11.8,14.61,3.05a8.84,8.84,0,0,0,5.73,2.84,5.49,5.49,0,0,0,1.61-.22,7.39,7.39,0,0,0,4.83-5.44c1-2.87,2.52-7.19,12.28-9.07a5.3,5.3,0,1,0-2-10.41h0Z" transform="translate(0.01 -28.58)"/><path class="cls-2" d="M390.16,156.88c-1.61-4.54-5.4-10.7-15.65-14.59a5.31,5.31,0,1,0-3.77,9.93c8.43,3.19,9.44,7.67,10.24,10.94a7.72,7.72,0,0,0,4.46,6.39,5.91,5.91,0,0,0,2,.39,8.87,8.87,0,0,0,5-2.05c2.23-1.57,5.48-3.85,12.74-1.27-1.43-4-3-7.9-4.64-11.74h0A20.43,20.43,0,0,0,390.16,156.88Z" transform="translate(0.01 -28.58)"/><path class="cls-2" d="M366.3,122.57a5.31,5.31,0,0,0,1.29,10.54c8.94-1.09,11.91,2.41,14.08,5a8.22,8.22,0,0,0,6.14,3.66h.82A6.17,6.17,0,0,0,393,139h0q-3-5.59-6.33-11h0C383,124.74,376.82,121.3,366.3,122.57Z" transform="translate(0.01 -28.58)"/><path class="cls-2" d="M368.55,103c-1.16-1.4-2.33-2.77-3.54-4.1h0a29.75,29.75,0,0,0-11.62-.65,5.31,5.31,0,0,0,1.29,10.54h0c8.94-1.09,11.91,2.41,14.08,5a8.16,8.16,0,0,0,6.14,3.66h.82a5.66,5.66,0,0,0,3-1.31h0c-1-1.45-2-2.88-3.17-4.32l-.18-.24-.12-.16c-1-1.33-2.05-2.64-3.05-3.93h-.11l-.14-.21c-1.08-1.33-2.17-2.68-3.27-4.09Z" transform="translate(0.01 -28.58)"/><path class="cls-2" d="M21.07,316.88c.38,4.81,2.43,11.74,11.29,18.17a5.17,5.17,0,0,0,2.42,1,5.3,5.3,0,0,0,3.8-9.56c-7.28-5.28-7.08-9.86-6.94-13.22A7.65,7.65,0,0,0,29,305.91a7.32,7.32,0,0,0-7.26-.27,11.22,11.22,0,0,1-10.6-.84c1.41,4.2,3,8.33,4.67,12.38A20.18,20.18,0,0,0,21.07,316.88Z" transform="translate(0.01 -28.58)"/></g></svg>