<svg id="Layer_1" data-name="Layer 1" xmlns="http://www.w3.org/2000/svg" viewBox="0 0 500 498.74"><defs><style>.cls-1{fill:#fff;}</style></defs><path class="cls-1" d="M500,250C500,111.93,388.07,0,250,0S0,111.93,0,250C0,371.46,86.63,472.68,201.47,495.28V306.57H150V236.65l51.44.06V168.45h0v-.39c0-43.69,41.56-79.18,93.1-79.77h56l-.39,14.51q-.74,27-1.48,53.91H298.57c-.54,0-1.09,0-1.63.06s-.84-.06-1.27-.06h0a20.25,20.25,0,0,0-20.5,20c0,.52,0,1,.08,1.55s-.08,1.24-.08,1.87v56.54h75.1q-1.42,35-2.84,69.93H275.17V498.74C401.42,486.12,500,379.58,500,250Z"/></svg>