<svg id="Layer_2" data-name="Layer 2" xmlns="http://www.w3.org/2000/svg" viewBox="0 0 500 500"><defs><style>.cls-1{fill:#fff;}</style></defs><path class="cls-1" d="M250,0C111.93,0,0,111.93,0,250S111.93,500,250,500,500,388.07,500,250,388.07,0,250,0ZM392.07,177.14c4.65,103.1-72.25,218-208.35,218A207.49,207.49,0,0,1,71.35,362.25a147.38,147.38,0,0,0,108.53-30.37A73.35,73.35,0,0,1,111.4,281a73.51,73.51,0,0,0,33.11-1.25c-35.26-7.07-59.6-38.84-58.79-72.8a73.05,73.05,0,0,0,33.18,9.17,73.4,73.4,0,0,1-22.67-97.87,208.08,208.08,0,0,0,151.08,76.58c-10.69-45.84,24.08-90,71.41-90A73.19,73.19,0,0,1,372.23,128a147,147,0,0,0,46.55-17.79,73.46,73.46,0,0,1-32.23,40.55,146.27,146.27,0,0,0,42.1-11.54A149.31,149.31,0,0,1,392.07,177.14Z"/></svg>