<svg id="Layer_1" data-name="Layer 1" xmlns="http://www.w3.org/2000/svg" viewBox="0 0 512 128"><defs><style>.cls-1{fill:#fff;}</style></defs><path class="cls-1" d="M256,192a64,64,0,1,0,64,64A64.07,64.07,0,0,0,256,192Z" transform="translate(0 -192)"/><path class="cls-1" d="M256,192a64,64,0,0,0,0,128Z" transform="translate(0 -192)"/><path class="cls-1" d="M64,192a64,64,0,1,0,64,64A64.07,64.07,0,0,0,64,192Z" transform="translate(0 -192)"/><path class="cls-1" d="M64,192a64,64,0,0,0,0,128Z" transform="translate(0 -192)"/><path class="cls-1" d="M448,192a64,64,0,1,0,64,64A64.07,64.07,0,0,0,448,192Z" transform="translate(0 -192)"/><path class="cls-1" d="M448,192a64,64,0,0,0,0,128Z" transform="translate(0 -192)"/></svg>